<?xml version="1.0" encoding="utf-8"?>
<!-- Generator: Adobe Illustrator 15.1.0, SVG Export Plug-In . SVG Version: 6.00 Build 0)  -->
<!DOCTYPE svg PUBLIC "-//W3C//DTD SVG 1.1//EN" "http://www.w3.org/Graphics/SVG/1.1/DTD/svg11.dtd">
<svg version="1.1" id="Layer_1" xmlns="http://www.w3.org/2000/svg" xmlns:xlink="http://www.w3.org/1999/xlink" x="0px" y="0px"
	 width="30px" height="13px" viewBox="0 0 30 13" enable-background="new 0 0 30 13" xml:space="preserve">
<g>
	<rect x="2.951" y="5.657" fill="#4A4A4D" width="26.762" height="1.688"/>
	<g>
		<path fill="#4A4A4D" d="M7.657,12.67l0.54-0.149c-0.649-1.73-1.21-2.99-2.09-3.931C5.237,7.65,4.567,7.2,3.417,6.5
			c1.15-0.7,1.82-1.149,2.69-2.09c0.88-0.94,1.44-2.2,2.09-3.93l-0.54-0.15c-0.92,1.42-1.97,2.63-3.14,3.62
			c-1.17,1-2.58,1.91-4.23,2.55c1.65,0.641,3.061,1.55,4.23,2.55C5.688,10.04,6.737,11.25,7.657,12.67z"/>
	</g>
</g>
</svg>
