<?xml version="1.0" encoding="utf-8"?>
<!-- Generator: Adobe Illustrator 15.1.0, SVG Export Plug-In . SVG Version: 6.00 Build 0)  -->
<!DOCTYPE svg PUBLIC "-//W3C//DTD SVG 1.1//EN" "http://www.w3.org/Graphics/SVG/1.1/DTD/svg11.dtd">
<svg version="1.1" id="Layer_1" xmlns="http://www.w3.org/2000/svg" xmlns:xlink="http://www.w3.org/1999/xlink" x="0px" y="0px"
	 width="100px" height="100px" viewBox="0 0 100 100" enable-background="new 0 0 100 100" xml:space="preserve">
<g>
	<g>
		<path fill="#0088CE" d="M99.699,29.386c-0.243-5.322-1.089-8.956-2.324-12.137c-1.278-3.288-2.987-6.076-5.767-8.856
			c-2.78-2.779-5.568-4.489-8.856-5.767c-3.181-1.236-6.815-2.082-12.137-2.324C65.282,0.059,63.579,0.001,50,0.001
			S34.718,0.059,29.385,0.302c-5.321,0.242-8.956,1.088-12.137,2.324c-3.288,1.277-6.076,2.987-8.855,5.767
			c-2.78,2.78-4.489,5.568-5.768,8.856C1.39,20.43,0.544,24.063,0.301,29.386C0.058,34.719,0,36.422,0,50.001
			s0.058,15.281,0.301,20.614c0.243,5.322,1.089,8.957,2.324,12.137c1.278,3.288,2.987,6.077,5.768,8.856
			c2.779,2.78,5.567,4.489,8.855,5.768c3.181,1.235,6.815,2.081,12.137,2.323C34.718,99.943,36.421,100,50,100
			s15.282-0.057,20.615-0.301c5.321-0.242,8.956-1.088,12.137-2.323c3.288-1.278,6.076-2.987,8.856-5.768
			c2.779-2.779,4.488-5.568,5.767-8.856c1.235-3.18,2.081-6.814,2.324-12.137C99.942,65.282,100,63.58,100,50.001
			S99.942,34.719,99.699,29.386z M90.761,70.235c-0.223,4.882-1.039,7.533-1.725,9.298c-0.908,2.338-1.993,4.006-3.745,5.758
			c-1.753,1.752-3.421,2.838-5.758,3.746c-1.765,0.686-4.416,1.502-9.299,1.724c-5.279,0.241-6.862,0.292-20.234,0.292
			s-14.955-0.051-20.234-0.292c-4.883-0.222-7.534-1.038-9.299-1.724c-2.337-0.908-4.005-1.994-5.757-3.746
			c-1.753-1.752-2.838-3.42-3.746-5.758c-0.686-1.765-1.502-4.416-1.725-9.298c-0.24-5.28-0.292-6.864-0.292-20.234
			c0-13.371,0.052-14.955,0.292-20.235c0.223-4.882,1.039-7.533,1.725-9.298c0.908-2.337,1.993-4.006,3.746-5.758
			c1.752-1.752,3.42-2.838,5.757-3.746c1.765-0.686,4.416-1.501,9.299-1.724C35.046,8.999,36.63,8.948,50,8.948
			S64.954,8.999,70.234,9.24c4.883,0.223,7.534,1.038,9.299,1.724c2.337,0.908,4.005,1.994,5.758,3.746
			c1.752,1.752,2.837,3.421,3.745,5.758c0.686,1.765,1.502,4.416,1.725,9.298c0.241,5.28,0.292,6.864,0.292,20.235
			C91.053,63.371,91.002,64.955,90.761,70.235z M50,24.342c-14.171,0-25.659,11.487-25.659,25.659
			C24.341,64.172,35.829,75.66,50,75.66s25.659-11.488,25.659-25.659C75.659,35.829,64.171,24.342,50,24.342z M50,66.712
			c-9.229,0-16.712-7.481-16.712-16.711S40.771,33.289,50,33.289s16.712,7.482,16.712,16.712S59.229,66.712,50,66.712z
			 M76.645,17.368c-3.307,0-5.987,2.681-5.987,5.987c0,3.308,2.681,5.988,5.987,5.988c3.308,0,5.988-2.681,5.988-5.988
			C82.633,20.049,79.952,17.368,76.645,17.368z"/>
	</g>
</g>
</svg>
