<?xml version="1.0" encoding="utf-8"?>
<!-- Generator: Adobe Illustrator 15.1.0, SVG Export Plug-In . SVG Version: 6.00 Build 0)  -->
<!DOCTYPE svg PUBLIC "-//W3C//DTD SVG 1.1//EN" "http://www.w3.org/Graphics/SVG/1.1/DTD/svg11.dtd">
<svg version="1.1" id="Layer_1" xmlns="http://www.w3.org/2000/svg" xmlns:xlink="http://www.w3.org/1999/xlink" x="0px" y="0px"
	 width="260px" height="144px" viewBox="0 0 260 144" enable-background="new 0 0 260 144" xml:space="preserve">
<g>
	<g>
		<path fill-rule="evenodd" clip-rule="evenodd" fill="#4A4A4D" d="M170.406,84.712c-0.742,0-7.498,3.871-14.75-0.352
			c-0.948-1.206-2.104-2.782-2.997-4.33c-5.258-9.13-15.135-31.842-8.3-53.981c3.982-12.901,15.181-16.584,19.26-17.76
			c0.961-0.274,1.412-1.008,1.412-1.008s-4.059-2.505-10.438,1.41c-6.122,3.757-12.542,12.646-14.181,20.258
			c-1.938,8.998-2.836,19.918-0.463,29.427c2.031,8.143,6.349,16.151,9.364,21.102c-7.017-6.414-14.217-15.442-20.779-18.505
			c-2.838-1.325-5.975-1.359-8.462-1.045c10.021-13.082,16.588-31.62,6.905-50.716c-7.902-15.584-23.754-10.404-32.305,8.086
			c-3.063,6.621-2.629,15.393-1.301,20.963c0.96,4.041,3.381,6.795,3.381,6.795s-4.152-16.073,0.862-26.077
			c9.774-19.49,29.288-12.363,29.536,5.981c0.257,19.137-7.59,30.208-14.738,38.57C101.511,76.282,89.25,78.813,89.25,78.813
			s-0.023,1.101,1.489,1.255c1.767,0.176,5.248-1.054,10.155-3.462c3.971-1.947,8.69-5.367,13.229-9.897
			c0.995-0.652,2.13-1.279,3.112-1.515c2.669-0.643,6.308-1.058,9.732,0.086c7.867,2.626,16.883,16.975,25.376,21.043
			c7.208,3.457,14.638,1.205,17.378-0.221C170.563,85.662,171.158,84.712,170.406,84.712z"/>
	</g>
</g>
<g>
	<path fill="#4A4A4D" d="M31.862,143.519h-1.2l-8.84-22.2l-8.801,22.2h-1.239l-11.36-28.6h3.24l8.68,21.8l8.84-21.8h1.28l8.8,21.8
		l8.721-21.8h3.16L31.862,143.519z"/>
	<path fill="#4A4A4D" d="M54.154,143.238v-28.319h15.92v2.76H57.273v9.92h12.441v2.76H57.273v10.08h13.08v2.8H54.154z"/>
	<path fill="#4A4A4D" d="M106.034,143.238l-19.96-23.039v23.039h-3.12v-28.319h2.521c1.813,2.16,3.572,4.24,5.279,6.24
		s3.44,3.974,5.2,5.92c1.601,1.76,3.187,3.547,4.761,5.359c1.572,1.814,3.159,3.667,4.76,5.561v-23.08h3.119v28.319H106.034z"/>
	<path fill="#4A4A4D" d="M144.462,139.278c-2.64,2.641-6.28,3.96-10.92,3.96h-10.521v-28.319h10.2c4.64,0,8.333,1.267,11.08,3.8
		c2.747,2.56,4.12,6.027,4.12,10.4C148.422,133.253,147.102,136.639,144.462,139.278z M141.861,120.839
		c-2.187-2.106-5.119-3.16-8.799-3.16h-6.92v22.8h6.799c3.681,0,6.641-1.04,8.881-3.12c2.213-2.053,3.32-4.8,3.32-8.239
		C145.143,125.706,144.049,122.945,141.861,120.839z"/>
	<path fill="#4A4A4D" d="M170.189,128.278v14.96h-3.12v-14.96l-11.159-13.359h3.84l8.92,10.56l8.84-10.56h3.84L170.189,128.278z"/>
	<path fill="#4A4A4D" d="M210.469,143.238v-28.319h3.12v25.52h13.479v2.8H210.469z"/>
	<path fill="#4A4A4D" d="M257.236,139.959c-2.187,2.427-5.054,3.64-8.6,3.64c-3.494,0-6.36-1.16-8.6-3.479
		c-2.215-2.32-3.32-5.334-3.32-9.04v-16.16h3.119v16c0,3.014,0.787,5.387,2.361,7.12c1.6,1.733,3.76,2.6,6.479,2.6
		c2.666,0,4.786-0.893,6.36-2.68c0.772-0.906,1.365-1.953,1.779-3.141c0.413-1.186,0.62-2.553,0.62-4.1v-15.8h3.12v15.96
		C260.557,134.559,259.449,137.586,257.236,139.959z"/>
</g>
</svg>
