<?xml version="1.0" encoding="utf-8"?>
<!-- Generator: Adobe Illustrator 15.1.0, SVG Export Plug-In . SVG Version: 6.00 Build 0)  -->
<!DOCTYPE svg PUBLIC "-//W3C//DTD SVG 1.1//EN" "http://www.w3.org/Graphics/SVG/1.1/DTD/svg11.dtd">
<svg version="1.1" id="Layer_1" xmlns="http://www.w3.org/2000/svg" xmlns:xlink="http://www.w3.org/1999/xlink" x="0px" y="0px"
	 width="100px" height="100px" viewBox="0 0 100 100" enable-background="new 0 0 100 100" xml:space="preserve">
<g display="none">
	<g display="inline">
		<path fill-rule="evenodd" clip-rule="evenodd" fill="#0088CE" d="M392.811,29.2l7.991-0.004V15.698
			c-1.382-0.184-6.126-0.595-11.645-0.595c-11.523,0-19.411,7.033-19.411,19.949v11.13h-13.032v15.093h13.032V100h15.585V61.275
			h12.999l1.946-15.093h-14.945v-9.636C385.332,32.178,386.544,29.2,392.811,29.2z"/>
	</g>
</g>
<path fill="#0088CE" d="M92.602,0H7.377C3.309,0,0.001,3.229,0.001,7.21v85.574c0,3.982,3.308,7.216,7.376,7.216h85.225
	c4.08,0,7.397-3.233,7.397-7.216V7.21C99.999,3.229,96.682,0,92.602,0z M29.664,85.211H14.821V37.489h14.843V85.211z M22.246,30.968
	c-4.764,0-8.604-3.853-8.604-8.599c0-4.748,3.841-8.603,8.604-8.603c4.743,0,8.596,3.854,8.596,8.603
	C30.842,27.115,26.989,30.968,22.246,30.968z M85.215,85.211H70.388V62.004c0-5.534-0.098-12.655-7.709-12.655
	c-7.718,0-8.896,6.033-8.896,12.259v23.604H38.969V37.489h14.218v6.523h0.203c1.978-3.752,6.82-7.707,14.036-7.707
	c15.014,0,17.789,9.881,17.789,22.733V85.211z"/>
</svg>
